<?xml version="1.0" encoding="UTF-8" standalone="no"?>
<svg
   xmlns:dc="http://purl.org/dc/elements/1.1/"
   xmlns:cc="http://creativecommons.org/ns#"
   xmlns:rdf="http://www.w3.org/1999/02/22-rdf-syntax-ns#"
   xmlns:svg="http://www.w3.org/2000/svg"
   xmlns="http://www.w3.org/2000/svg"
   xmlns:sodipodi="http://sodipodi.sourceforge.net/DTD/sodipodi-0.dtd"
   xmlns:inkscape="http://www.inkscape.org/namespaces/inkscape"
   width="320mm"
   height="100mm"
   id="svg2985"
   version="1.1"
   inkscape:version="0.48.4 r9943 custom"
   sodipodi:docname="planetary_transit.svg">
  <metadata
     id="metadata3033">
    <rdf:RDF>
      <cc:Work
         rdf:about="">
        <dc:format>image/svg+xml</dc:format>
        <dc:type
           rdf:resource="http://purl.org/dc/dcmitype/StillImage" />
        <dc:title></dc:title>
      </cc:Work>
    </rdf:RDF>
  </metadata>
  <sodipodi:namedview
     pagecolor="#ffffff"
     bordercolor="#666666"
     borderopacity="1"
     objecttolerance="10"
     gridtolerance="10"
     guidetolerance="10"
     inkscape:pageopacity="0"
     inkscape:pageshadow="2"
     inkscape:window-width="1052"
     inkscape:window-height="715"
     id="namedview3031"
     showgrid="false"
     inkscape:zoom="2.4364961"
     inkscape:cx="983.405"
     inkscape:cy="87.621431"
     inkscape:window-x="247"
     inkscape:window-y="78"
     inkscape:window-maximized="0"
     inkscape:current-layer="svg2985" />
  <defs
     id="defs2987">
    <marker
       inkscape:stockid="Arrow1Lstart"
       orient="auto"
       refY="0.0"
       refX="0.0"
       id="Arrow1Lstart"
       style="overflow:visible">
      <path
         id="path6485"
         d="M 0.0,0.0 L 5.0,-5.0 L -12.5,0.0 L 5.0,5.0 L 0.0,0.0 z "
         style="fill-rule:evenodd;stroke:#000000;stroke-width:1.0pt"
         transform="scale(0.8) translate(12.5,0)" />
    </marker>
    <marker
       inkscape:stockid="Arrow1Lend"
       orient="auto"
       refY="0.0"
       refX="0.0"
       id="Arrow1Lend"
       style="overflow:visible;">
      <path
         id="path6488"
         d="M 0.0,0.0 L 5.0,-5.0 L -12.5,0.0 L 5.0,5.0 L 0.0,0.0 z "
         style="fill-rule:evenodd;stroke:#000000;stroke-width:1.0pt;"
         transform="scale(0.8) rotate(180) translate(12.5,0)" />
    </marker>
    <marker
       id="TriangleInL">
      <path
         transform="scale(-0.8)"
         style="stroke:#000;stroke-width:1pt"
         d="M 5.77,0.0 L -2.88,5.0 L -2.88,-5.0 L 5.77,0.0z"
         id="path2990" />
    </marker>
    <marker
       id="TriangleOutL">
      <path
         transform="scale(0.8)"
         style="stroke:#000;stroke-width:1pt"
         d="M 5.77,0.0 L -2.88,5.0 L -2.88,-5.0 L 5.77,0.0z"
         id="path2993" />
    </marker>
  </defs>
  <path
     style="fill:none;stroke:#000;stroke-width:1.3385174pt"
     d="M 1079.8523,131.88422 C 1082.3807,96.698221 656.89471,93.410741 586.40178,94.414141 C 515.90885,93.410741 92.116856,96.931661 92.951226,132.11766 C 92.951226,96.093021 515.90881,93.410741 586.40178,93.410741 C 656.89471,92.407341 1083.2151,95.859581 1079.8523,131.88422z"
     id="path2995" />
  <path
     style="fill:#ffdd55;stroke:#000;stroke-width:1pt"
     d="M 354.33071 343.70078 A 85.033073 88.58268 0 1 0 184.26456,343.70078 A 85.033073 88.58268 0 1 0 354.33071 343.70078z"
     transform="matrix(1.158388,0,0,1.115764,276.2334,-256.0599)"
     id="path2997" />
  <path
     style="fill:none;stroke:#000;stroke-width:1.67300000000000004;marker-mid:none;stroke-miterlimit:4;stroke-dasharray:none;marker-end:none;marker-start:none;stroke-linejoin:miter"
     d="M 1079.8545,132.14322 C 1082.3829,167.32922 656.89694,170.6167 586.40401,169.6133 C 515.91108,170.6167 92.119085,167.09578 92.953451,131.90978 C 92.953451,167.93442 515.91104,170.6167 586.40401,170.6167 C 656.89694,171.6201 1083.2173,168.16786 1079.8545,132.14322z"
     id="path2999" />
  <path
     style="fill:#37c837;stroke:#000;stroke-width:1pt"
     d="M 88.582679 312.86749 A 8.8582678 4.5997839 0 1 0 70.866143,312.86749 A 8.8582678 4.5997839 0 1 0 88.582679 312.86749z"
     transform="matrix(1.046192,0,0,2.016756,363.0446,-461.3641)"
     id="path3001" />
  <path
     style="fill:#37c837;stroke:#000;stroke-width:1pt"
     d="M 88.582679 312.86749 A 8.8582678 4.5997839 0 1 0 70.866143,312.86749 A 8.8582678 4.5997839 0 1 0 88.582679 312.86749z"
     transform="matrix(1.046192,0,0,2.016756,415.74,-461.3441)"
     id="path3003" />
  <path
     style="fill:#37c837;stroke:#000;stroke-width:1pt"
     d="M 88.582679 312.86749 A 8.8582678 4.5997839 0 1 0 70.866143,312.86749 A 8.8582678 4.5997839 0 1 0 88.582679 312.86749z"
     transform="matrix(1.046192,0,0,2.016756,504.778,-461.3641)"
     id="path3005" />
  <path
     style="fill:none;stroke:#000;stroke-width:1.700007"
     d="M 91.267862,241.32944 C 91.267862,241.32944 445.60149,241.32944 490.63621,241.32944 C 502.29485,241.32944 502.29485,269.67588 516.46821,271.49664 C 587.33493,271.49664 587.33493,271.49664 658.20165,271.49664 C 672.37501,269.67588 672.37501,241.32944 687.24733,241.32944 C 772.64953,241.32944 1012.5353,241.32944 1083.4020,241.32944"
     id="path3007" />
  <text
     style="font-size:48.00019073px;font-style:normal;font-variant:normal;font-weight:500;font-stretch:normal;fill:#000000;font-family:CMU Sans Serif;-inkscape-font-specification:CMU Sans Serif Medium"
     x="72.702133"
     y="92.648209"
     transform="scale(1.000004,0.999996)"
     id="text3013">
    <tspan
       id="tspan3015"
       style="font-style:normal;font-variant:normal;font-weight:500;font-stretch:normal;font-family:CMU Sans Serif;-inkscape-font-specification:CMU Sans Serif Medium">Planet Orbit</tspan>
  </text>
  <path
     style="fill:none;stroke:#000000;stroke-width:1.30400801000000000;marker-start:url(#Arrow1Lstart);marker-end:url(#Arrow1Lend)"
     d="m 64.621172,189.04546 0,121.15176 1019.630828,0.50016"
     id="path3017"
     inkscape:connector-curvature="0"
     sodipodi:nodetypes="ccc" />
  <text
     style="font-size:12.00004768px;font-style:normal;font-variant:normal;font-weight:500;font-stretch:normal;fill:#000000;font-family:CMU Sans Serif;-inkscape-font-specification:CMU Sans Serif Medium"
     x="-283.69827"
     y="47.717144"
     transform="matrix(0,-0.999996,1.000004,0,0,0)"
     id="text3019">
    <tspan
       id="tspan3021"
       style="font-style:normal;font-variant:normal;font-weight:500;font-stretch:normal;font-family:CMU Sans Serif;-inkscape-font-specification:CMU Sans Serif Medium">Brightness</tspan>
  </text>
  <text
     style="font-size:12.00004768px;font-style:normal;font-variant:normal;font-weight:500;font-stretch:normal;fill:#000000;font-family:CMU Sans Serif;-inkscape-font-specification:CMU Sans Serif Medium"
     x="1014.8872"
     y="341.94467"
     transform="scale(1.000004,0.999996)"
     id="text3023">
    <tspan
       id="tspan3025"
       style="font-style:normal;font-variant:normal;font-weight:500;font-stretch:normal;font-family:CMU Sans Serif;-inkscape-font-specification:CMU Sans Serif Medium">Time</tspan>
  </text>
  <text
     style="font-size:12;fill:#000;font-family:CMU Sans Serif;-inkscape-font-specification:CMU Sans Serif Medium;font-weight:500;font-style:normal;font-stretch:normal;font-variant:normal"
     x="204.31667"
     y="71.796989"
     transform="scale(4.000032,4)"
     id="text3027">
    <tspan
       id="tspan3029"
       style="-inkscape-font-specification:CMU Sans Serif Medium;font-family:CMU Sans Serif;font-weight:500;font-style:normal;font-stretch:normal;font-variant:normal">Light curve</tspan>
  </text>
  <path
     style="fill:none;stroke:#000000;stroke-width:3;stroke-linecap:butt;stroke-linejoin:miter;stroke-miterlimit:4;stroke-opacity:1;stroke-dasharray:none;marker-start:url(#TriangleOutL)"
     d="m 768.88203,167.75674 c 13.79763,0 5.74291,-0.8441 5.74291,-0.8441 l -0.83921,0.42205"
     id="path4739"
     inkscape:connector-curvature="0"
     sodipodi:nodetypes="ccc" />
</svg>
