<?xml version="1.0" encoding="UTF-8" standalone="no"?>
<svg
   xmlns:dc="http://purl.org/dc/elements/1.1/"
   xmlns:cc="http://creativecommons.org/ns#"
   xmlns:rdf="http://www.w3.org/1999/02/22-rdf-syntax-ns#"
   xmlns:svg="http://www.w3.org/2000/svg"
   xmlns="http://www.w3.org/2000/svg"
   xmlns:sodipodi="http://sodipodi.sourceforge.net/DTD/sodipodi-0.dtd"
   xmlns:inkscape="http://www.inkscape.org/namespaces/inkscape"
   width="1048.0067"
   height="288.67532"
   id="svg2985"
   version="1.1"
   inkscape:version="0.48.4 r9943 custom"
   sodipodi:docname="planetary_transit.svg">
  <metadata
     id="metadata3033">
    <rdf:RDF>
      <cc:Work
         rdf:about="">
        <dc:format>image/svg+xml</dc:format>
        <dc:type
           rdf:resource="http://purl.org/dc/dcmitype/StillImage" />
        <dc:title></dc:title>
      </cc:Work>
    </rdf:RDF>
  </metadata>
  <sodipodi:namedview
     pagecolor="#ffffff"
     bordercolor="#666666"
     borderopacity="1"
     objecttolerance="10"
     gridtolerance="10"
     guidetolerance="10"
     inkscape:pageopacity="0"
     inkscape:pageshadow="2"
     inkscape:window-width="1052"
     inkscape:window-height="715"
     id="namedview3031"
     showgrid="false"
     inkscape:zoom="0.90727399"
     inkscape:cx="270.40262"
     inkscape:cy="144.33766"
     inkscape:window-x="247"
     inkscape:window-y="78"
     inkscape:window-maximized="0"
     inkscape:current-layer="svg2985"
     fit-margin-top="0"
     fit-margin-left="0"
     fit-margin-right="0"
     fit-margin-bottom="0" />
  <defs
     id="defs2987">
    <marker
       inkscape:stockid="Arrow1Lstart"
       orient="auto"
       refY="0"
       refX="0"
       id="Arrow1Lstart"
       style="overflow:visible">
      <path
         id="path6485"
         d="M 0,0 5,-5 -12.5,0 5,5 0,0 z"
         style="fill-rule:evenodd;stroke:#000000;stroke-width:1pt"
         transform="matrix(0.8,0,0,0.8,10,0)"
         inkscape:connector-curvature="0" />
    </marker>
    <marker
       inkscape:stockid="Arrow1Lend"
       orient="auto"
       refY="0"
       refX="0"
       id="Arrow1Lend"
       style="overflow:visible">
      <path
         id="path6488"
         d="M 0,0 5,-5 -12.5,0 5,5 0,0 z"
         style="fill-rule:evenodd;stroke:#000000;stroke-width:1pt"
         transform="matrix(-0.8,0,0,-0.8,-10,0)"
         inkscape:connector-curvature="0" />
    </marker>
    <marker
       id="TriangleOutL">
      <path
         transform="scale(0.8,0.8)"
         style="stroke:#000000;stroke-width:1pt"
         d="m 5.77,0 -8.65,5 0,-10 8.65,5 z"
         id="path2993"
         inkscape:connector-curvature="0" />
    </marker>
  </defs>
  <path
     style="fill:none;stroke:#000000;stroke-width:1.33851738pt"
     d="m 1042.955,104.00308 c 2.5284,-35.186002 -422.95756,-38.473482 -493.45049,-37.470082 -70.49293,-1.0034 -494.284918,2.51752 -493.450548,37.703522 0,-36.024642 422.957578,-38.706922 493.450548,-38.706922 70.49293,-1.0034 496.81329,2.44884 493.45049,38.473482 z"
     id="path2995"
     inkscape:connector-curvature="0" />
  <path
     style="fill:#ffdd55;stroke:#000000;stroke-width:1.1368763pt"
     d="m 649.78858,99.547918 a 98.501295,98.837369 0 1 0 -197.00259,0 98.501295,98.837369 0 0 0 197.00259,0 z"
     id="path2997"
     inkscape:connector-curvature="0" />
  <path
     style="fill:none;stroke:#000000;stroke-width:1.67299998;stroke-linejoin:miter;stroke-miterlimit:4;stroke-dasharray:none;marker-start:none;marker-mid:none;marker-end:none"
     d="m 1042.9572,104.26208 c 2.5284,35.186 -422.95753,38.47348 -493.45046,37.47008 -70.49293,1.0034 -494.284919,-2.51752 -493.450553,-37.70352 0,36.02464 422.957583,38.70692 493.450553,38.70692 70.49293,1.0034 496.81326,-2.44884 493.45046,-38.47348 z"
     id="path2999"
     inkscape:connector-curvature="0" />
  <path
     style="fill:#37c837;stroke:#000000;stroke-width:1.45255432pt"
     d="m 418.82182,141.73215 a 9.2674491,9.276642 0 1 0 -18.53489,0 9.2674491,9.276642 0 0 0 18.53489,0 z"
     id="path3001"
     inkscape:connector-curvature="0" />
  <path
     style="fill:#37c837;stroke:#000000;stroke-width:1.45255432pt"
     d="m 471.51722,141.75215 a 9.2674491,9.276642 0 1 0 -18.53489,0 9.2674491,9.276642 0 0 0 18.53489,0 z"
     id="path3003"
     inkscape:connector-curvature="0" />
  <path
     style="fill:#37c837;stroke:#000000;stroke-width:1.45255432pt"
     d="m 560.55522,141.73215 a 9.2674491,9.276642 0 1 0 -18.53489,0 9.2674491,9.276642 0 0 0 18.53489,0 z"
     id="path3005"
     inkscape:connector-curvature="0" />
  <path
     style="fill:none;stroke:#000000;stroke-width:1.70000696"
     d="m 54.370598,213.4483 c 0,0 354.333622,0 399.368342,0 11.65864,0 11.65864,28.34644 25.832,30.1672 70.86672,0 70.86672,0 141.73344,0 14.17336,-1.82076 14.17336,-30.1672 29.04568,-30.1672 85.4022,0 325.28797,0 396.15464,0"
     id="path3007"
     inkscape:connector-curvature="0" />
  <text
     style="font-size:48.00019073px;font-style:normal;font-variant:normal;font-weight:500;font-stretch:normal;fill:#000000;font-family:CMU Sans Serif;-inkscape-font-specification:CMU Sans Serif Medium"
     x="35.805019"
     y="64.766953"
     transform="scale(1.000004,0.999996)"
     id="text3013">
    <tspan
       id="tspan3015"
       style="font-style:normal;font-variant:normal;font-weight:500;font-stretch:normal;font-family:CMU Sans Serif;-inkscape-font-specification:CMU Sans Serif Medium">Planet Orbit</tspan>
  </text>
  <path
     style="fill:none;stroke:#000000;stroke-width:1.30400801;marker-start:url(#Arrow1Lstart);marker-end:url(#Arrow1Lend)"
     d="m 27.723908,161.16432 0,121.15176 1019.630792,0.50016"
     id="path3017"
     inkscape:connector-curvature="0"
     sodipodi:nodetypes="ccc" />
  <text
     style="font-size:12.00004768px;font-style:normal;font-variant:normal;font-weight:500;font-stretch:normal;fill:#000000;font-family:CMU Sans Serif;-inkscape-font-specification:CMU Sans Serif Medium"
     x="-255.58565"
     y="8.6640348"
     transform="matrix(0,-0.999996,1.000004,0,0,0)"
     id="text3019">
    <tspan
       id="tspan3021"
       style="font-style:normal;font-variant:normal;font-weight:500;font-stretch:normal;font-family:CMU Sans Serif;-inkscape-font-specification:CMU Sans Serif Medium">Brightness</tspan>
  </text>
  <text
     style="font-size:12.00004768px;font-style:normal;font-variant:normal;font-weight:500;font-stretch:normal;fill:#000000;font-family:CMU Sans Serif;-inkscape-font-specification:CMU Sans Serif Medium"
     x="974.33643"
     y="272.65488"
     transform="scale(1.000004,0.999996)"
     id="text3023">
    <tspan
       id="tspan3025"
       style="font-style:normal;font-variant:normal;font-weight:500;font-stretch:normal;font-family:CMU Sans Serif;-inkscape-font-specification:CMU Sans Serif Medium">Time</tspan>
  </text>
  <text
     style="font-size:48.00019073px;font-style:normal;font-variant:normal;font-weight:500;font-stretch:normal;fill:#000000;font-family:CMU Sans Serif;-inkscape-font-specification:CMU Sans Serif Medium"
     x="150.72469"
     y="256.87207"
     transform="scale(1.000004,0.999996)"
     id="text3027">
    <tspan
       id="tspan3029"
       style="font-style:normal;font-variant:normal;font-weight:500;font-stretch:normal;font-family:CMU Sans Serif;-inkscape-font-specification:CMU Sans Serif Medium">Light curve</tspan>
  </text>
  <path
     style="fill:none;stroke:#000000;stroke-width:3;stroke-linecap:butt;stroke-linejoin:miter;stroke-miterlimit:4;stroke-opacity:1;stroke-dasharray:none;marker-start:url(#TriangleOutL)"
     d="m 731.98476,139.8756 c 13.79763,0 5.74291,-0.8441 5.74291,-0.8441 l -0.83921,0.42205"
     id="path4739"
     inkscape:connector-curvature="0"
     sodipodi:nodetypes="ccc" />
</svg>
